<svg width="20" height="20" viewBox="0 0 20 20" fill="none" xmlns="http://www.w3.org/2000/svg">
<g clip-path="url(#clip0_4_636)">
<path d="M19.837 5.54687C19.7797 5.46545 19.7036 5.399 19.6153 5.35311C19.5269 5.30721 19.4288 5.28322 19.3292 5.28316H6.06484L5.06078 1.82066C4.66703 0.457223 3.73139 0.310036 3.34764 0.310036H0.670449C0.327305 0.310036 0.0498047 0.587848 0.0498047 0.930661C0.0498047 1.27347 0.327617 1.55127 0.67043 1.55127H3.3473C3.43199 1.55127 3.69043 1.55127 3.8667 2.16033L7.32076 14.8544C7.39576 15.1222 7.63982 15.3072 7.91824 15.3072H16.3551C16.617 15.3072 16.8507 15.1431 16.9392 14.8966L19.9129 6.11375C19.9814 5.92343 19.9529 5.71156 19.837 5.54687H19.837ZM15.9184 14.0663H8.38932L6.41369 6.52472H18.4468L15.9184 14.0663ZM14.6874 16.565C13.8243 16.565 13.1249 17.2644 13.1249 18.1275C13.1249 18.9907 13.8243 19.69 14.6874 19.69C15.5506 19.69 16.2499 18.9907 16.2499 18.1275C16.2499 17.2644 15.5506 16.565 14.6874 16.565ZM9.06244 16.565C8.19932 16.565 7.49994 17.2644 7.49994 18.1275C7.49994 18.9907 8.19932 19.69 9.06244 19.69C9.92557 19.69 10.6249 18.9907 10.6249 18.1275C10.6249 17.2644 9.92557 16.565 9.06244 16.565Z" fill="white"/>
<path d="M18.5 6.5H6L8.5 14.5H16L18.5 6.5Z" fill="white"/>
</g>
<defs>
<clipPath id="clip0_4_636">
<rect width="20" height="20" fill="white"/>
</clipPath>
</defs>
</svg>
